<svg width="622" height="849" xmlns="http://www.w3.org/2000/svg" xmlns:xlink="http://www.w3.org/1999/xlink" overflow="hidden"><defs><clipPath id="clip0"><rect x="2421" y="723" width="622" height="849"/></clipPath></defs><g clip-path="url(#clip0)" transform="translate(-2421 -723)"><path d="M2532.35 803.218 2737.05 734.5 2835.21 769.005 2943.5 812.868C2904.32 819.301 2605.28 817.108 2580.77 817.254 2512.25 815.646 2509.53 815.402 2532.35 803.218Z" stroke="#1A70B2" stroke-width="20.625" stroke-miterlimit="8" fill="none" fill-rule="evenodd"/><path d="M2600.14 832.148 2727.73 820.5 2860.63 830.396C2860.92 856.953 2861.21 883.5 2861.5 910.057 2818.1 923.205 2813.4 909.151 2731.27 949.5 2658.51 908.275 2642.09 923.205 2597.5 910.057 2598.37 884.084 2599.27 858.121 2600.14 832.148Z" stroke="#1A70B2" stroke-width="20.625" stroke-miterlimit="8" fill="none" fill-rule="evenodd"/><path d="M2464 1100C2464 1033.17 2515.94 979 2580 979 2644.06 979 2696 1033.17 2696 1100 2696 1166.83 2644.06 1221 2580 1221 2515.94 1221 2464 1166.83 2464 1100Z" stroke="#1A70B2" stroke-width="27.5" stroke-miterlimit="8" fill="none" fill-rule="evenodd"/><path d="M2796 1094C2796 1027.17 2848.16 973 2912.5 973 2976.84 973 3029 1027.17 3029 1094 3029 1160.83 2976.84 1215 2912.5 1215 2848.16 1215 2796 1160.83 2796 1094Z" stroke="#1A70B2" stroke-width="27.5" stroke-miterlimit="8" fill="none" fill-rule="evenodd"/><path d="M2516 1507 2535.37 1557.59" stroke="#1A70B2" stroke-width="27.5" stroke-miterlimit="8" fill="none" fill-rule="evenodd"/><path d="M2596 1503 2615.37 1553.59" stroke="#1A70B2" stroke-width="27.5" stroke-miterlimit="8" fill="none" fill-rule="evenodd"/><path d="M2557 1503 2576.37 1553.59" stroke="#1A70B2" stroke-width="27.5" stroke-miterlimit="8" fill="none" fill-rule="evenodd"/><path d="M0 0 8.19659 45.7871" stroke="#1A70B2" stroke-width="27.5" stroke-miterlimit="8" fill="none" fill-rule="evenodd" transform="matrix(-1 0 0 1 2886.2 1506)"/><path d="M0 0 17.7404 50.5885" stroke="#1A70B2" stroke-width="27.5" stroke-miterlimit="8" fill="none" fill-rule="evenodd" transform="matrix(-1 0 0 1 2972.74 1499)"/><path d="M0 0 10.0952 44.3818" stroke="#1A70B2" stroke-width="27.5" stroke-miterlimit="8" fill="none" fill-rule="evenodd" transform="matrix(-1 0 0 1 2930.1 1506)"/><path d="M2913.17 1021.09C2952.24 1021.14 2983.95 1053.9 2984 1094.27 2984.05 1134.64 2952.42 1167.32 2913.35 1167.27 2874.28 1167.23 2842.56 1134.46 2842.51 1094.09 2842.5 1084 2844.47 1074.39 2848.04 1065.65L2848.48 1064.8 2864.34 1076 2862.22 1083.15C2861.53 1086.69 2861.17 1090.36 2861.18 1094.12 2861.22 1124.19 2884.56 1148.59 2913.32 1148.63 2942.09 1148.66 2965.37 1124.32 2965.33 1094.25 2965.3 1064.18 2941.95 1039.77 2913.19 1039.74 2898.81 1039.72 2885.8 1045.8 2876.38 1055.64L2875.37 1056.92 2860.18 1046.18 2863.17 1042.44C2875.95 1029.23 2893.63 1021.07 2913.17 1021.09Z" stroke="#1A70B2" stroke-width="4.58333" stroke-miterlimit="8" fill="#1A70B2" fill-rule="evenodd"/><path d="M2579.31 1023.41C2618.38 1023.46 2650.09 1056.23 2650.14 1096.59 2650.19 1136.96 2618.56 1169.65 2579.49 1169.6 2540.42 1169.55 2508.7 1136.79 2508.65 1096.42 2508.64 1086.33 2510.61 1076.71 2514.18 1067.97L2514.62 1067.13 2530.48 1078.33 2528.36 1085.47C2527.67 1089.01 2527.31 1092.68 2527.32 1096.44 2527.36 1126.51 2550.7 1150.91 2579.47 1150.95 2608.23 1150.99 2631.51 1126.64 2631.48 1096.57 2631.44 1066.5 2608.09 1042.1 2579.33 1042.06 2564.95 1042.05 2551.94 1048.12 2542.52 1057.96L2541.52 1059.24 2526.32 1048.51 2529.31 1044.76C2542.1 1031.55 2559.77 1023.39 2579.31 1023.41Z" stroke="#1A70B2" stroke-width="4.58333" stroke-miterlimit="8" fill="#1A70B2" fill-rule="evenodd"/><path d="M2776.17 1231.5 2781.74 1231.64C2889.38 1238.91 2976.82 1313.34 2985.5 1408.78L2975.07 1409.5C2966.63 1320.57 2883.4 1251.27 2780.98 1244.47L2770.5 1244.21 2776.17 1231.5Z" stroke="#1A70B2" stroke-width="4.58333" stroke-miterlimit="8" fill="#1A70B2" fill-rule="evenodd"/><path d="M2718.64 1236.5 2724.5 1247.44 2720.71 1247.62C2606.76 1257.02 2518.83 1323.8 2518.83 1404.5L2507.5 1404.5C2507.5 1323.83 2587.83 1256.13 2695.74 1239.25L2718.64 1236.5Z" stroke="#1A70B2" stroke-width="4.58333" stroke-miterlimit="8" fill="#1A70B2" fill-rule="evenodd"/><path d="M2474.6 993.5C2469.27 986.087 2470.13 987.875 2465.22 974.882 2464.5 972.964 2462.12 966.848 2461.71 964.991L2460.53 959.755C2459.62 948.931 2460.55 956.333 2458.19 944.627 2456.4 935.763 2458.02 940.895 2455.26 933.573 2455.06 931.439 2454.91 929.302 2454.67 927.173 2454.52 925.81 2454.25 924.462 2454.09 923.1 2453.86 921.164 2453.7 919.221 2453.5 917.282 2453.7 914.373 2453.85 911.461 2454.09 908.555 2454.29 906.04 2454.65 901.949 2455.26 899.245 2455.39 898.647 2455.65 898.082 2455.84 897.5 2456.43 898.276 2457.03 899.038 2457.6 899.827 2458.01 900.396 2458.15 901.244 2458.78 901.573 2461.18 902.844 2463.76 903.827 2466.4 904.482 2467.18 904.676 2468 904.756 2468.74 905.064 2470.35 905.731 2471.77 906.842 2473.43 907.391 2475.19 907.973 2476.98 908.453 2478.7 909.136 2480.38 909.802 2483.46 911.09 2485.15 911.464 2487.47 911.976 2489.88 912.055 2492.19 912.627 2492.97 912.821 2493.74 913.087 2494.53 913.209 2497.92 913.727 2503.77 913.939 2506.84 914.955 2507.43 915.148 2508.01 915.368 2508.6 915.536 2509.88 915.899 2512.67 916.529 2513.88 916.7 2515.63 916.948 2517.39 917.088 2519.15 917.282L2556.08 916.7C2557.07 916.671 2558.02 916.241 2559.01 916.118 2561.15 915.853 2563.3 915.643 2565.46 915.536 2571.12 915.255 2576.79 915.148 2582.46 914.955 2590.86 913.763 2593.43 913.791 2590.08 913.791" stroke="#1A70B2" stroke-width="20.625" stroke-miterlimit="8" fill="none" fill-rule="evenodd"/><path d="M21.102 96.0003C15.7672 88.5869 16.6322 90.3754 11.7233 77.382 10.9987 75.4641 8.62209 69.348 8.20633 67.4911L7.034 62.2547C6.1253 51.4316 7.04803 58.8334 4.68933 47.1274 2.90314 38.2629 4.52484 43.3951 1.7585 36.0728 1.56317 33.9394 1.41068 31.8018 1.17233 29.6728 1.01984 28.3098 0.747524 26.962 0.586166 25.6001 0.356685 23.6644 0.195327 21.7212 0 19.7819 0.195327 16.8728 0.351884 13.9609 0.586166 11.0546 0.788879 8.53965 1.15313 4.44913 1.7585 1.74546 1.89253 1.14678 2.14934 0.58182 2.34467 0 2.93083 0.775699 3.53528 1.5382 4.10317 2.32728 4.51265 2.89627 4.65388 3.74362 5.2755 4.07274 7.67684 5.34395 10.2554 6.32672 12.8957 6.98184 13.6772 7.17572 14.4967 7.25616 15.2403 7.56366 16.8535 8.23087 18.2718 9.34247 19.9297 9.89094 21.6882 10.4728 23.4841 10.9531 25.2052 11.6364 26.8806 12.3016 29.9598 13.5902 31.653 13.9637 33.9735 14.4755 36.3809 14.555 38.687 15.1273 39.4685 15.3212 40.2354 15.5875 41.0317 15.7091 44.4202 16.2266 50.2709 16.4388 53.3411 17.4546 53.9273 17.6485 54.5055 17.868 55.0996 18.0364 56.3796 18.3994 59.1664 19.0287 60.3751 19.2001 62.1266 19.4484 63.8921 19.588 65.6506 19.7819L102.579 19.2001C103.575 19.1709 104.521 18.7408 105.51 18.6182 107.651 18.3525 109.802 18.1434 111.958 18.0364 117.62 17.7553 123.29 17.6485 128.957 17.4546 137.356 16.2635 139.926 16.291 136.577 16.291" stroke="#1A70B2" stroke-width="20.625" stroke-miterlimit="8" fill="none" fill-rule="evenodd" transform="matrix(-1 0 0 1 3011.5 892.5)"/><path d="M2516 909 2516 879 2540 855 2564 879 2564 909Z" stroke="#1A70B2" stroke-width="13.75" stroke-miterlimit="8" fill="none" fill-rule="evenodd"/><path d="M0 0 0.55397 29.3369" stroke="#1A70B2" stroke-width="20.625" stroke-miterlimit="8" fill="none" fill-rule="evenodd" transform="matrix(-1 0 0 1 2541.05 825.5)"/><path d="M2896.27 1064.2C2909.38 1056.5 2925.78 1060.95 2932.91 1074.15 2937.12 1081.96 2937.29 1091.5 2933.35 1099.71L2921.26 1093.91C2924.72 1086.7 2922.11 1078.27 2915.44 1075.06 2911.42 1073.13 2906.62 1073.49 2902.65 1076.01Z" stroke="#1A70B2" stroke-width="4.58333" stroke-miterlimit="8" fill="#1A70B2" fill-rule="evenodd"/><path d="M2566.5 1067.16C2579.61 1059.45 2596.01 1063.91 2603.14 1077.11 2607.36 1084.92 2607.52 1094.46 2603.58 1102.66L2591.5 1096.86C2594.95 1089.66 2592.34 1081.22 2585.67 1078.02 2581.65 1076.09 2576.85 1076.45 2572.88 1078.97Z" stroke="#1A70B2" stroke-width="4.58333" stroke-miterlimit="8" fill="#1A70B2" fill-rule="evenodd"/><path d="M2699.5 1209.86 2746.29 1167.5 2794.5 1209.86 2746.29 1297.5 2699.5 1209.86Z" stroke="#1A70B2" stroke-width="20.625" stroke-miterlimit="8" fill="none" fill-rule="evenodd"/><path d="M2532.35 803.218 2737.05 734.5 2835.21 769.005 2943.5 812.868C2904.32 819.301 2605.28 817.108 2580.77 817.254 2512.25 815.646 2509.53 815.402 2532.35 803.218Z" stroke="#1A70B2" stroke-width="20.625" stroke-miterlimit="8" fill="none" fill-rule="evenodd"/><path d="M2600.14 832.148 2727.73 820.5 2860.63 830.396C2860.92 856.953 2861.21 883.5 2861.5 910.057 2818.1 923.205 2813.4 909.151 2731.27 949.5 2658.51 908.275 2642.09 923.205 2597.5 910.057 2598.37 884.084 2599.27 858.121 2600.14 832.148Z" stroke="#1A70B2" stroke-width="20.625" stroke-miterlimit="8" fill="none" fill-rule="evenodd"/><path d="M2464 1100C2464 1033.17 2515.94 979 2580 979 2644.06 979 2696 1033.17 2696 1100 2696 1166.83 2644.06 1221 2580 1221 2515.94 1221 2464 1166.83 2464 1100Z" stroke="#1A70B2" stroke-width="27.5" stroke-miterlimit="8" fill="none" fill-rule="evenodd"/><path d="M2796 1094C2796 1027.17 2848.16 973 2912.5 973 2976.84 973 3029 1027.17 3029 1094 3029 1160.83 2976.84 1215 2912.5 1215 2848.16 1215 2796 1160.83 2796 1094Z" stroke="#1A70B2" stroke-width="27.5" stroke-miterlimit="8" fill="none" fill-rule="evenodd"/><path d="M2913.16 1021.09C2952.24 1021.14 2983.95 1053.9 2984 1094.27 2984.05 1134.64 2952.42 1167.32 2913.35 1167.27 2874.28 1167.23 2842.56 1134.46 2842.51 1094.09 2842.5 1084 2844.47 1074.39 2848.04 1065.65L2848.48 1064.8 2864.33 1076 2862.22 1083.15C2861.53 1086.69 2861.17 1090.36 2861.18 1094.12 2861.21 1124.19 2884.56 1148.59 2913.32 1148.62 2942.09 1148.66 2965.37 1124.31 2965.33 1094.25 2965.3 1064.18 2941.95 1039.77 2913.19 1039.74 2898.81 1039.72 2885.79 1045.8 2876.38 1055.64L2875.37 1056.92 2860.18 1046.18 2863.17 1042.44C2875.95 1029.22 2893.63 1021.07 2913.16 1021.09Z" stroke="#1A70B2" stroke-width="4.58333" stroke-miterlimit="8" fill="#1A70B2" fill-rule="evenodd"/><path d="M2579.31 1023.41C2618.38 1023.46 2650.09 1056.23 2650.14 1096.59 2650.19 1136.96 2618.56 1169.65 2579.49 1169.6 2540.42 1169.55 2508.7 1136.79 2508.65 1096.42 2508.64 1086.33 2510.61 1076.71 2514.18 1067.97L2514.62 1067.13 2530.48 1078.33 2528.36 1085.47C2527.67 1089.01 2527.31 1092.68 2527.32 1096.44 2527.36 1126.51 2550.7 1150.91 2579.47 1150.95 2608.23 1150.98 2631.51 1126.64 2631.48 1096.57 2631.44 1066.5 2608.09 1042.1 2579.33 1042.06 2564.95 1042.05 2551.94 1048.12 2542.53 1057.96L2541.52 1059.24 2526.32 1048.51 2529.31 1044.76C2542.1 1031.55 2559.77 1023.39 2579.31 1023.41Z" stroke="#1A70B2" stroke-width="4.58333" stroke-miterlimit="8" fill="#1A70B2" fill-rule="evenodd"/><path d="M2776.17 1231.5 2781.74 1231.64C2889.38 1238.91 2976.82 1313.34 2985.5 1408.78L2975.07 1409.5C2966.63 1320.57 2883.4 1251.27 2780.98 1244.47L2770.5 1244.21 2776.17 1231.5Z" stroke="#1A70B2" stroke-width="4.58333" stroke-miterlimit="8" fill="#1A70B2" fill-rule="evenodd"/><path d="M2718.64 1236.5 2724.5 1247.44 2720.71 1247.62C2606.76 1257.02 2518.83 1323.8 2518.83 1404.5L2507.5 1404.5C2507.5 1323.83 2587.83 1256.13 2695.74 1239.25L2718.64 1236.5Z" stroke="#1A70B2" stroke-width="4.58333" stroke-miterlimit="8" fill="#1A70B2" fill-rule="evenodd"/><path d="M2478.12 993.5C2471.89 986.087 2472.9 987.875 2467.18 974.882 2466.33 972.964 2463.56 966.848 2463.07 964.991L2461.71 959.755C2460.65 948.931 2461.72 956.333 2458.97 944.627 2456.89 935.763 2458.78 940.895 2455.55 933.573 2455.32 931.439 2455.15 929.302 2454.87 927.173 2454.69 925.81 2454.37 924.462 2454.18 923.1 2453.92 921.164 2453.73 919.221 2453.5 917.282 2453.73 914.373 2453.91 911.461 2454.18 908.555 2454.42 906.04 2454.84 901.949 2455.55 899.245 2455.71 898.647 2456.01 898.082 2456.24 897.5 2456.92 898.276 2457.62 899.038 2458.29 899.827 2458.76 900.396 2458.93 901.244 2459.65 901.573 2462.46 902.844 2465.46 903.827 2468.54 904.482 2469.46 904.676 2470.41 904.756 2471.28 905.064 2473.16 905.731 2474.82 906.842 2476.75 907.391 2478.8 907.973 2480.9 908.453 2482.91 909.136 2484.86 909.802 2488.45 911.09 2490.43 911.464 2493.14 911.976 2495.94 912.055 2498.63 912.627 2499.55 912.821 2500.44 913.087 2501.37 913.209 2505.32 913.727 2512.15 913.939 2515.73 914.955 2516.42 915.148 2517.09 915.368 2517.78 915.536 2519.28 915.899 2522.53 916.529 2523.94 916.7 2525.98 916.948 2528.04 917.088 2530.09 917.282L2573.18 916.7C2574.34 916.671 2575.44 916.241 2576.59 916.118 2579.09 915.853 2581.6 915.643 2584.12 915.536 2590.72 915.255 2597.34 915.148 2603.95 914.955 2613.75 913.763 2616.75 913.791 2612.84 913.791" stroke="#1A70B2" stroke-width="20.625" stroke-miterlimit="8" fill="none" fill-rule="evenodd"/><path d="M22.937 96.0003C17.1383 88.5869 18.0784 90.3754 12.7428 77.382 11.9551 75.4641 9.37184 69.348 8.91992 67.4911L7.64565 62.2547C6.65794 51.4316 7.6609 58.8334 5.0971 47.1274 3.15559 38.2629 4.9183 43.3951 1.91141 36.0728 1.6991 33.9394 1.53334 31.8018 1.27427 29.6728 1.10852 28.3098 0.812526 26.962 0.637137 25.6001 0.387701 23.6644 0.212312 21.7212 0 19.7819 0.212312 16.8728 0.382483 13.9609 0.637137 11.0546 0.857477 8.53965 1.2534 4.44913 1.91141 1.74546 2.0571 1.14678 2.33624 0.58182 2.54855 0 3.18569 0.775699 3.84269 1.5382 4.45996 2.32728 4.90506 2.89627 5.05857 3.74362 5.73424 4.07274 8.34439 5.34395 11.1472 6.32672 14.017 6.98184 14.8665 7.17572 15.7573 7.25616 16.5656 7.56366 18.3191 8.23087 19.8606 9.34247 21.6627 9.89094 23.5741 10.4728 25.5262 10.9531 27.3969 11.6364 29.218 12.3016 32.5651 13.5902 34.4054 13.9637 36.9277 14.4755 39.5445 14.555 42.0511 15.1273 42.9005 15.3212 43.7341 15.5875 44.5996 15.7091 48.2828 16.2266 54.6423 16.4388 57.9795 17.4546 58.6166 17.6485 59.2452 17.868 59.8909 18.0364 61.2822 18.3994 64.3114 19.0287 65.6252 19.2001 67.5289 19.4484 69.448 19.588 71.3594 19.7819L111.499 19.2001C112.581 19.1709 113.61 18.7408 114.685 18.6182 117.012 18.3525 119.35 18.1434 121.693 18.0364 127.848 17.7553 134.011 17.6485 140.17 17.4546 149.3 16.2635 152.094 16.291 148.453 16.291" stroke="#1A70B2" stroke-width="20.625" stroke-miterlimit="8" fill="none" fill-rule="evenodd" transform="matrix(-1 0 0 1 3011.5 892.5)"/><path d="M2516 909 2516 879 2540 855 2564 879 2564 909Z" stroke="#1A70B2" stroke-width="13.75" stroke-miterlimit="8" fill="none" fill-rule="evenodd"/><path d="M0 0 0.55397 29.3369" stroke="#1A70B2" stroke-width="20.625" stroke-miterlimit="8" fill="none" fill-rule="evenodd" transform="matrix(-1 0 0 1 2541.05 825.5)"/><path d="M2896.27 1064.2C2909.38 1056.5 2925.78 1060.95 2932.91 1074.15 2937.12 1081.96 2937.29 1091.5 2933.35 1099.71L2921.26 1093.91C2924.72 1086.7 2922.11 1078.27 2915.44 1075.06 2911.42 1073.13 2906.62 1073.49 2902.65 1076.01Z" stroke="#1A70B2" stroke-width="4.58333" stroke-miterlimit="8" fill="#1A70B2" fill-rule="evenodd"/><path d="M2566.5 1067.16C2579.61 1059.45 2596.01 1063.91 2603.14 1077.11 2607.36 1084.92 2607.52 1094.46 2603.58 1102.66L2591.5 1096.86C2594.95 1089.66 2592.34 1081.22 2585.67 1078.02 2581.65 1076.09 2576.85 1076.44 2572.88 1078.97Z" stroke="#1A70B2" stroke-width="4.58333" stroke-miterlimit="8" fill="#1A70B2" fill-rule="evenodd"/><path d="M2699.5 1209.86 2746.29 1167.5 2794.5 1209.86 2746.29 1297.5 2699.5 1209.86Z" stroke="#1A70B2" stroke-width="20.625" stroke-miterlimit="8" fill="none" fill-rule="evenodd"/><path d="M3000.5 1178.17 3003.7 1184.3C3017.78 1215.07 3025.6 1248.89 3025.64 1284.39 3025.83 1426.36 2901.7 1541.28 2748.39 1541.08 2595.08 1540.88 2470.65 1425.63 2470.46 1283.65 2470.44 1265.91 2472.36 1248.58 2476.03 1231.85L2479.19 1220.44 2490.4 1228.91 2488.84 1234.51C2485.34 1250.38 2483.51 1266.83 2483.53 1283.67 2483.71 1418.43 2602.29 1527.82 2748.38 1528.01 2894.46 1528.21 3012.75 1419.12 3012.57 1284.37 3012.53 1250.68 3005.08 1218.58 2991.66 1189.37L2991.08 1188.27 3000.5 1178.17Z" stroke="#1A70B2" stroke-width="4.58333" stroke-miterlimit="8" fill="#1A70B2" fill-rule="evenodd"/></g></svg>